<svg width="306" height="120" viewBox="0 0 306 120" fill="none" xmlns="http://www.w3.org/2000/svg">
<mask id="mask0_180_706" style="mask-type:luminance" maskUnits="userSpaceOnUse" x="52" y="0" width="27" height="119">
<path d="M52.4326 0H78.168V3.23085H52.4326V0ZM57.072 3.23085H73.5325V115.386H57.072V3.23085ZM52.4326 115.386H78.168V118.602H52.4326V115.386Z" fill="white"/>
</mask>
<g mask="url(#mask0_180_706)">
<path d="M52.4326 0H78.168V118.557H52.4326V84.5809H74V59H52.4326V0Z" fill="black"/>
</g>
<mask id="mask1_180_706" style="mask-type:luminance" maskUnits="userSpaceOnUse" x="83" y="0" width="46" height="119">
<path d="M83.4814 0H128.208V118.701H83.4814V0Z" fill="white"/>
</mask>
<g mask="url(#mask1_180_706)">
<mask id="mask2_180_706" style="mask-type:luminance" maskUnits="userSpaceOnUse" x="83" y="0" width="46" height="119">
<path d="M83.4814 0H127.36L128.208 35.2477H126.69C124.608 23.0402 122.203 14.7528 119.478 10.3289C116.756 5.93144 112.68 3.73461 107.287 3.73461H104.92V58.7917H108.726C111.42 58.7917 113.677 56.8069 115.47 52.8602C117.274 48.9135 118.507 43.4858 119.177 36.5999H120.448V86.7595H119.013C118.111 78.2828 116.867 72.2453 115.264 68.6433C113.662 65.0413 111.474 63.2156 108.726 63.2156H104.92V114.883H115.386V118.602H83.4814V114.883H88.4595V3.73461H83.4814V0Z" fill="white"/>
</mask>
<g mask="url(#mask2_180_706)">
<path d="M83.4998 -0.0795898H128.227L126.018 78.4204V86.4999V118.5H83.4998V84.5142L102 84.757L111.25 84.8784L122 88.9999V84.8784L122.984 59H83.4845L83.4998 -0.0795898Z" fill="black"/>
</g>
</g>
<mask id="mask3_180_706" style="mask-type:luminance" maskUnits="userSpaceOnUse" x="133" y="0" width="52" height="119">
<path d="M133.315 0H184.908V118.64H133.315V0Z" fill="white"/>
</mask>
<g mask="url(#mask3_180_706)">
<mask id="mask4_180_706" style="mask-type:luminance" maskUnits="userSpaceOnUse" x="133" y="0" width="52" height="119">
<path d="M183.953 0L184.798 42.5313H183.199C180.725 27.5172 178.533 17.2678 176.619 11.7871C174.704 6.30262 171.953 3.57553 168.356 3.57553H167.344V115.042H174.499V118.591H143.702V115.042H150.868V3.54901H149.776C146.176 3.54901 143.386 6.40868 141.414 12.1053C139.447 17.8246 137.285 27.9679 134.918 42.5313H133.315L134.164 0H183.953Z" fill="white"/>
</mask>
<g mask="url(#mask4_180_706)">
<path d="M133.315 0H184.786V59.32V118.64H133.315L150.5 84.5H167.5L168.5 59H133.315V0Z" fill="black"/>
</g>
</g>
<mask id="mask5_180_706" style="mask-type:luminance" maskUnits="userSpaceOnUse" x="189" y="0" width="48" height="119">
<path d="M189.894 0.355957H236.752V118.682H189.894V0.355957Z" fill="white"/>
</mask>
<g mask="url(#mask5_180_706)">
<mask id="mask6_180_706" style="mask-type:luminance" maskUnits="userSpaceOnUse" x="189" y="0" width="48" height="119">
<path d="M189.894 0.355957H233.642L234.487 33.8083H232.972C230.613 22.4303 228.143 14.6391 225.566 10.4159C222.99 6.1927 219.195 4.0792 214.202 4.0792H211.256V56.2804H214.122C216.756 56.2804 218.978 54.2729 220.763 50.2845C222.567 46.3 223.819 40.9102 224.558 34.153H225.825V84.1611H224.394C223.385 75.7109 222.019 69.6924 220.314 66.1017C218.609 62.511 216.265 60.6892 213.288 60.6892H211.271V114.894H214.464C219.618 114.894 224.01 111.803 227.625 105.599C231.241 99.4215 233.722 91.4751 235.073 81.7825H236.752L236.082 118.602H189.894V114.894H194.86V4.0792H189.894V0.355957Z" fill="white"/>
</mask>
<g mask="url(#mask6_180_706)">
<path d="M189.893 0.355957H236.751V118.564H188.628L188.628 84.6033H226V59H189.893V0.355957Z" fill="black"/>
</g>
</g>
<mask id="mask7_180_706" style="mask-type:luminance" maskUnits="userSpaceOnUse" x="241" y="0" width="60" height="119">
<path d="M241.859 0H300.337V118.689H241.859V0Z" fill="white"/>
</mask>
<g mask="url(#mask7_180_706)">
<mask id="mask8_180_706" style="mask-type:luminance" maskUnits="userSpaceOnUse" x="241" y="0" width="60" height="119">
<path d="M300.337 57.2577C300.337 80.5365 297.068 96.7437 290.556 105.88C284.535 114.352 276.272 118.591 265.749 118.591H241.859V115.36H247.427V3.23085H241.859V0H267.937C278.735 0 286.849 4.42396 292.238 13.2946C297.642 22.1652 300.337 36.812 300.337 57.2577ZM263.888 115.36H267.089C272.767 115.36 276.832 111.334 279.283 103.258C281.73 95.1795 282.948 81.6462 282.948 62.6853V52.8602C282.948 27.4376 280.527 12.1583 275.698 6.93894C273.384 4.45047 270.13 3.20434 265.913 3.20434H263.888V115.36Z" fill="white"/>
</mask>
<g mask="url(#mask8_180_706)">
<path d="M241.859 0H300.337V59H282.881L282 84.5H298.5V119L241.859 118.568V97L247.5 84.5H264V59H247.5L241.859 0Z" fill="black"/>
</g>
</g>
<g filter="url(#filter0_d_180_706)">
<path d="M15.1311 67.5898V76.8165H13.3651L8.73717 71.2108V76.8165H6.62109V67.5898H8.40225L13.015 73.1955V67.5898H15.1311Z" fill="black"/>
</g>
<g filter="url(#filter1_d_180_706)">
<path d="M28.6826 75.1045V76.8165H21.4971V67.5898H28.4999V69.3019H23.6284V71.3017H27.9366V72.9683H23.6284V75.1045H28.6826Z" fill="black"/>
</g>
<g filter="url(#filter2_d_180_706)">
<path d="M48.5787 67.5898L45.534 76.8165H43.2352L41.1953 70.5745L39.0944 76.8165H36.7957L33.751 67.5898H35.9736L38.0745 74.0743L40.2514 67.5898H42.2457L44.3618 74.1349L46.5235 67.5898H48.5787Z" fill="black"/>
</g>
<g filter="url(#filter3_d_180_706)">
<path d="M70.5676 67.5898V76.8165H68.4211V73.0289H64.2041V76.8165H62.0576V67.5898H64.2041V71.226H68.4211V67.5898H70.5676Z" fill="black"/>
</g>
<g filter="url(#filter4_d_180_706)">
<path d="M84.1181 75.1045V76.8165H76.9326V67.5898H83.9355V69.3019H79.0639V71.3017H83.3722V72.9683H79.0639V75.1045H84.1181Z" fill="black"/>
</g>
<g filter="url(#filter5_d_180_706)">
<path d="M89.9932 67.5898H92.1397V76.8165H89.9932V67.5898Z" fill="black"/>
</g>
<g filter="url(#filter6_d_180_706)">
<path d="M104.783 72.0594H106.732V75.8016C106.233 76.1765 105.651 76.4644 104.981 76.6652C104.319 76.8659 103.657 76.9682 102.987 76.9682C102.02 76.9682 101.152 76.7674 100.384 76.3621C99.6224 75.9607 99.0211 75.3925 98.5872 74.6653C98.1496 73.9381 97.9326 73.1199 97.9326 72.2109C97.9326 71.2943 98.1496 70.4686 98.5872 69.7414C99.0211 69.0141 99.6262 68.4498 100.399 68.0445C101.179 67.643 102.058 67.4385 103.033 67.4385C103.843 67.4385 104.578 67.5748 105.24 67.8475C105.898 68.1203 106.458 68.5142 106.915 69.0293L105.529 70.2868C104.867 69.6012 104.072 69.2565 103.139 69.2565C102.549 69.2565 102.02 69.3777 101.556 69.6202C101.099 69.8626 100.741 70.211 100.49 70.6655C100.235 71.1125 100.11 71.6276 100.11 72.2109C100.11 72.779 100.235 73.2866 100.49 73.7411C100.741 74.188 101.099 74.5365 101.556 74.7865C102.013 75.0289 102.53 75.1501 103.109 75.1501C103.725 75.1501 104.285 75.0213 104.783 74.7562V72.0594Z" fill="black"/>
</g>
<g filter="url(#filter7_d_180_706)">
<path d="M121.407 67.5898V76.8165H119.261V73.0289H115.044V76.8165H112.897V67.5898H115.044V71.226H119.261V67.5898H121.407Z" fill="black"/>
</g>
<g filter="url(#filter8_d_180_706)">
<path d="M129.69 69.3322H126.722V67.5898H134.805V69.3322H131.837V76.8165H129.69V69.3322Z" fill="black"/>
</g>
<g filter="url(#filter9_d_180_706)">
<path d="M143.177 76.9682C142.446 76.9682 141.734 76.8697 141.046 76.6803C140.364 76.4796 139.816 76.222 139.401 75.9076L140.132 74.3017C140.528 74.5971 141 74.8281 141.548 74.9986C142.096 75.1728 142.644 75.2562 143.192 75.2562C143.801 75.2562 144.25 75.1728 144.547 74.9986C144.84 74.8168 144.988 74.5744 144.988 74.2714C144.988 74.0517 144.901 73.8699 144.73 73.7259C144.555 73.5858 144.334 73.4684 144.06 73.3775C143.793 73.2866 143.428 73.1919 142.964 73.0896C142.263 72.9192 141.685 72.7525 141.228 72.5897C140.779 72.4192 140.395 72.1503 140.071 71.7867C139.755 71.4155 139.599 70.9193 139.599 70.3019C139.599 69.7679 139.74 69.2831 140.026 68.8475C140.319 68.4157 140.76 68.071 141.35 67.8172C141.936 67.5673 142.652 67.4385 143.497 67.4385C144.083 67.4385 144.661 67.5104 145.232 67.6506C145.799 67.7832 146.298 67.9839 146.724 68.2566L146.054 69.8777C145.202 69.3929 144.341 69.1505 143.481 69.1505C142.88 69.1505 142.438 69.249 142.157 69.4383C141.871 69.6315 141.731 69.8853 141.731 70.1959C141.731 70.5216 141.89 70.7564 142.218 70.9079C142.553 71.0595 143.059 71.211 143.74 71.3625C144.44 71.5253 145.011 71.692 145.46 71.8624C145.917 72.0253 146.305 72.2866 146.633 72.6503C146.956 73.0139 147.12 73.5063 147.12 74.1199C147.12 74.6463 146.967 75.1274 146.663 75.5592C146.366 75.9947 145.925 76.3394 145.339 76.5894C144.749 76.8394 144.029 76.9682 143.177 76.9682Z" fill="black"/>
</g>
<g filter="url(#filter10_d_180_706)">
<path d="M165.169 76.9682C164.202 76.9682 163.335 76.7674 162.566 76.3621C161.793 75.9493 161.188 75.3774 160.754 74.6501C160.317 73.9229 160.1 73.1124 160.1 72.2109C160.1 71.3019 160.317 70.4837 160.754 69.7565C161.188 69.0293 161.793 68.4649 162.566 68.0596C163.335 67.6468 164.202 67.4385 165.169 67.4385C166.132 67.4385 166.996 67.6468 167.757 68.0596C168.526 68.4649 169.131 69.0293 169.569 69.7565C170.014 70.4837 170.238 71.3019 170.238 72.2109C170.238 73.1124 170.014 73.9229 169.569 74.6501C169.131 75.3774 168.526 75.9493 167.757 76.3621C166.996 76.7674 166.132 76.9682 165.169 76.9682ZM165.169 75.1501C165.717 75.1501 166.208 75.0289 166.646 74.7865C167.091 74.5365 167.441 74.188 167.696 73.7411C167.947 73.2866 168.077 72.779 168.077 72.2109C168.077 71.6352 167.947 71.1276 167.696 70.6807C167.441 70.2262 167.091 69.8777 166.646 69.6353C166.208 69.3853 165.717 69.2565 165.169 69.2565C164.621 69.2565 164.122 69.3853 163.677 69.6353C163.239 69.8777 162.893 70.2262 162.642 70.6807C162.398 71.1276 162.277 71.6352 162.277 72.2109C162.277 72.779 162.398 73.2866 162.642 73.7411C162.893 74.188 163.239 74.5365 163.677 74.7865C164.122 75.0289 164.621 75.1501 165.169 75.1501Z" fill="black"/>
</g>
<g filter="url(#filter11_d_180_706)">
<path d="M178.177 69.3019V71.7411H182.47V73.4531H178.177V76.8165H176.03V67.5898H183.033V69.3019H178.177Z" fill="black"/>
</g>
<g filter="url(#filter12_d_180_706)">
<path d="M210.61 67.5898L207.565 76.8165H205.266L203.227 70.5745L201.126 76.8165H198.827L195.782 67.5898H198.005L200.106 74.0743L202.283 67.5898H204.277L206.393 74.1349L208.555 67.5898H210.61Z" fill="black"/>
</g>
<g filter="url(#filter13_d_180_706)">
<path d="M223.353 75.1045V76.8165H216.167V67.5898H223.17V69.3019H218.298V71.3017H222.607V72.9683H218.298V75.1045H223.353Z" fill="black"/>
</g>
<g filter="url(#filter14_d_180_706)">
<path d="M229.228 67.5898H231.374V75.0742H236.032V76.8165H229.228V67.5898Z" fill="black"/>
</g>
<g filter="url(#filter15_d_180_706)">
<path d="M241.401 67.5898H243.548V75.0742H248.206V76.8165H241.401V67.5898Z" fill="black"/>
</g>
<g filter="url(#filter16_d_180_706)">
<path d="M262.085 67.5898V76.8165H260.319L255.691 71.2108V76.8165H253.575V67.5898H255.356L259.969 73.1955V67.5898H262.085Z" fill="black"/>
</g>
<g filter="url(#filter17_d_180_706)">
<path d="M275.637 75.1045V76.8165H268.451V67.5898H275.454V69.3019H270.582V71.3017H274.891V72.9683H270.582V75.1045H275.637Z" fill="black"/>
</g>
<g filter="url(#filter18_d_180_706)">
<path d="M284.556 76.9682C283.825 76.9682 283.113 76.8697 282.424 76.6803C281.743 76.4796 281.195 76.222 280.78 75.9076L281.511 74.3017C281.907 74.5971 282.379 74.8281 282.927 74.9986C283.475 75.1728 284.023 75.2562 284.571 75.2562C285.18 75.2562 285.629 75.1728 285.926 74.9986C286.219 74.8168 286.367 74.5744 286.367 74.2714C286.367 74.0517 286.28 73.8699 286.109 73.7259C285.933 73.5858 285.713 73.4684 285.439 73.3775C285.172 73.2866 284.807 73.1919 284.343 73.0896C283.642 72.9192 283.064 72.7525 282.607 72.5897C282.158 72.4192 281.774 72.1503 281.45 71.7867C281.134 71.4155 280.978 70.9193 280.978 70.3019C280.978 69.7679 281.119 69.2831 281.404 68.8475C281.697 68.4157 282.139 68.071 282.729 67.8172C283.315 67.5673 284.031 67.4385 284.875 67.4385C285.462 67.4385 286.04 67.5104 286.611 67.6506C287.178 67.7832 287.677 67.9839 288.103 68.2566L287.433 69.8777C286.58 69.3929 285.72 69.1505 284.86 69.1505C284.259 69.1505 283.817 69.249 283.536 69.4383C283.25 69.6315 283.109 69.8853 283.109 70.1959C283.109 70.5216 283.269 70.7564 283.597 70.9079C283.932 71.0595 284.438 71.211 285.119 71.3625C285.819 71.5253 286.39 71.692 286.839 71.8624C287.296 72.0253 287.684 72.2866 288.011 72.6503C288.335 73.0139 288.499 73.5063 288.499 74.1199C288.499 74.6463 288.346 75.1274 288.042 75.5592C287.745 75.9947 287.304 76.3394 286.717 76.5894C286.128 76.8394 285.408 76.9682 284.556 76.9682Z" fill="black"/>
</g>
<g filter="url(#filter19_d_180_706)">
<path d="M297.181 76.9682C296.45 76.9682 295.738 76.8697 295.049 76.6803C294.368 76.4796 293.82 76.222 293.405 75.9076L294.136 74.3017C294.532 74.5971 295.004 74.8281 295.552 74.9986C296.1 75.1728 296.648 75.2562 297.196 75.2562C297.805 75.2562 298.254 75.1728 298.551 74.9986C298.844 74.8168 298.992 74.5744 298.992 74.2714C298.992 74.0517 298.905 73.8699 298.734 73.7259C298.558 73.5858 298.338 73.4684 298.064 73.3775C297.797 73.2866 297.432 73.1919 296.968 73.0896C296.267 72.9192 295.689 72.7525 295.232 72.5897C294.783 72.4192 294.399 72.1503 294.075 71.7867C293.759 71.4155 293.603 70.9193 293.603 70.3019C293.603 69.7679 293.744 69.2831 294.029 68.8475C294.322 68.4157 294.764 68.071 295.354 67.8172C295.94 67.5673 296.656 67.4385 297.5 67.4385C298.087 67.4385 298.665 67.5104 299.236 67.6506C299.803 67.7832 300.302 67.9839 300.728 68.2566L300.058 69.8777C299.205 69.3929 298.345 69.1505 297.485 69.1505C296.884 69.1505 296.442 69.249 296.161 69.4383C295.875 69.6315 295.734 69.8853 295.734 70.1959C295.734 70.5216 295.894 70.7564 296.222 70.9079C296.557 71.0595 297.063 71.211 297.744 71.3625C298.444 71.5253 299.015 71.692 299.464 71.8624C299.921 72.0253 300.309 72.2866 300.636 72.6503C300.96 73.0139 301.124 73.5063 301.124 74.1199C301.124 74.6463 300.971 75.1274 300.667 75.5592C300.37 75.9947 299.929 76.3394 299.342 76.5894C298.753 76.8394 298.033 76.9682 297.181 76.9682Z" fill="black"/>
</g>
<mask id="mask9_180_706" style="mask-type:luminance" maskUnits="userSpaceOnUse" x="0" y="1" width="47" height="119">
<path d="M0 1H46.3253V119.644H0V1Z" fill="white"/>
</mask>
<g mask="url(#mask9_180_706)">
<mask id="mask10_180_706" style="mask-type:luminance" maskUnits="userSpaceOnUse" x="0" y="1" width="47" height="119">
<path d="M0 1H30.371V4.73461H21.4233V115.883H24.4604C29.2368 115.883 33.0541 112.944 35.9009 107.065C38.7439 101.183 41.6174 92.1532 44.5479 79.9456H46.3253L44.723 119.591H0V115.856H4.9781V4.73461H0V1Z" fill="white"/>
</mask>
<g mask="url(#mask10_180_706)">
<path d="M0 1H46.3253V119.644H0V85.2187H46.3253V59.644H0V1Z" fill="black"/>
</g>
</g>
<defs>
<filter id="filter0_d_180_706" x="2.62109" y="67.5898" width="16.5098" height="17.2266" filterUnits="userSpaceOnUse" color-interpolation-filters="sRGB">
<feFlood flood-opacity="0" result="BackgroundImageFix"/>
<feColorMatrix in="SourceAlpha" type="matrix" values="0 0 0 0 0 0 0 0 0 0 0 0 0 0 0 0 0 0 127 0" result="hardAlpha"/>
<feOffset dy="4"/>
<feGaussianBlur stdDeviation="2"/>
<feComposite in2="hardAlpha" operator="out"/>
<feColorMatrix type="matrix" values="0 0 0 0 0 0 0 0 0 0 0 0 0 0 0 0 0 0 0.25 0"/>
<feBlend mode="normal" in2="BackgroundImageFix" result="effect1_dropShadow_180_706"/>
<feBlend mode="normal" in="SourceGraphic" in2="effect1_dropShadow_180_706" result="shape"/>
</filter>
<filter id="filter1_d_180_706" x="17.4971" y="67.5898" width="15.1855" height="17.2266" filterUnits="userSpaceOnUse" color-interpolation-filters="sRGB">
<feFlood flood-opacity="0" result="BackgroundImageFix"/>
<feColorMatrix in="SourceAlpha" type="matrix" values="0 0 0 0 0 0 0 0 0 0 0 0 0 0 0 0 0 0 127 0" result="hardAlpha"/>
<feOffset dy="4"/>
<feGaussianBlur stdDeviation="2"/>
<feComposite in2="hardAlpha" operator="out"/>
<feColorMatrix type="matrix" values="0 0 0 0 0 0 0 0 0 0 0 0 0 0 0 0 0 0 0.25 0"/>
<feBlend mode="normal" in2="BackgroundImageFix" result="effect1_dropShadow_180_706"/>
<feBlend mode="normal" in="SourceGraphic" in2="effect1_dropShadow_180_706" result="shape"/>
</filter>
<filter id="filter2_d_180_706" x="29.751" y="67.5898" width="22.8281" height="17.2266" filterUnits="userSpaceOnUse" color-interpolation-filters="sRGB">
<feFlood flood-opacity="0" result="BackgroundImageFix"/>
<feColorMatrix in="SourceAlpha" type="matrix" values="0 0 0 0 0 0 0 0 0 0 0 0 0 0 0 0 0 0 127 0" result="hardAlpha"/>
<feOffset dy="4"/>
<feGaussianBlur stdDeviation="2"/>
<feComposite in2="hardAlpha" operator="out"/>
<feColorMatrix type="matrix" values="0 0 0 0 0 0 0 0 0 0 0 0 0 0 0 0 0 0 0.25 0"/>
<feBlend mode="normal" in2="BackgroundImageFix" result="effect1_dropShadow_180_706"/>
<feBlend mode="normal" in="SourceGraphic" in2="effect1_dropShadow_180_706" result="shape"/>
</filter>
<filter id="filter3_d_180_706" x="58.0576" y="67.5898" width="16.5098" height="17.2266" filterUnits="userSpaceOnUse" color-interpolation-filters="sRGB">
<feFlood flood-opacity="0" result="BackgroundImageFix"/>
<feColorMatrix in="SourceAlpha" type="matrix" values="0 0 0 0 0 0 0 0 0 0 0 0 0 0 0 0 0 0 127 0" result="hardAlpha"/>
<feOffset dy="4"/>
<feGaussianBlur stdDeviation="2"/>
<feComposite in2="hardAlpha" operator="out"/>
<feColorMatrix type="matrix" values="0 0 0 0 0 0 0 0 0 0 0 0 0 0 0 0 0 0 0.25 0"/>
<feBlend mode="normal" in2="BackgroundImageFix" result="effect1_dropShadow_180_706"/>
<feBlend mode="normal" in="SourceGraphic" in2="effect1_dropShadow_180_706" result="shape"/>
</filter>
<filter id="filter4_d_180_706" x="72.9326" y="67.5898" width="15.1855" height="17.2266" filterUnits="userSpaceOnUse" color-interpolation-filters="sRGB">
<feFlood flood-opacity="0" result="BackgroundImageFix"/>
<feColorMatrix in="SourceAlpha" type="matrix" values="0 0 0 0 0 0 0 0 0 0 0 0 0 0 0 0 0 0 127 0" result="hardAlpha"/>
<feOffset dy="4"/>
<feGaussianBlur stdDeviation="2"/>
<feComposite in2="hardAlpha" operator="out"/>
<feColorMatrix type="matrix" values="0 0 0 0 0 0 0 0 0 0 0 0 0 0 0 0 0 0 0.25 0"/>
<feBlend mode="normal" in2="BackgroundImageFix" result="effect1_dropShadow_180_706"/>
<feBlend mode="normal" in="SourceGraphic" in2="effect1_dropShadow_180_706" result="shape"/>
</filter>
<filter id="filter5_d_180_706" x="85.9932" y="67.5898" width="10.1465" height="17.2266" filterUnits="userSpaceOnUse" color-interpolation-filters="sRGB">
<feFlood flood-opacity="0" result="BackgroundImageFix"/>
<feColorMatrix in="SourceAlpha" type="matrix" values="0 0 0 0 0 0 0 0 0 0 0 0 0 0 0 0 0 0 127 0" result="hardAlpha"/>
<feOffset dy="4"/>
<feGaussianBlur stdDeviation="2"/>
<feComposite in2="hardAlpha" operator="out"/>
<feColorMatrix type="matrix" values="0 0 0 0 0 0 0 0 0 0 0 0 0 0 0 0 0 0 0.25 0"/>
<feBlend mode="normal" in2="BackgroundImageFix" result="effect1_dropShadow_180_706"/>
<feBlend mode="normal" in="SourceGraphic" in2="effect1_dropShadow_180_706" result="shape"/>
</filter>
<filter id="filter6_d_180_706" x="93.9326" y="67.4385" width="16.9814" height="17.5298" filterUnits="userSpaceOnUse" color-interpolation-filters="sRGB">
<feFlood flood-opacity="0" result="BackgroundImageFix"/>
<feColorMatrix in="SourceAlpha" type="matrix" values="0 0 0 0 0 0 0 0 0 0 0 0 0 0 0 0 0 0 127 0" result="hardAlpha"/>
<feOffset dy="4"/>
<feGaussianBlur stdDeviation="2"/>
<feComposite in2="hardAlpha" operator="out"/>
<feColorMatrix type="matrix" values="0 0 0 0 0 0 0 0 0 0 0 0 0 0 0 0 0 0 0.25 0"/>
<feBlend mode="normal" in2="BackgroundImageFix" result="effect1_dropShadow_180_706"/>
<feBlend mode="normal" in="SourceGraphic" in2="effect1_dropShadow_180_706" result="shape"/>
</filter>
<filter id="filter7_d_180_706" x="108.897" y="67.5898" width="16.5098" height="17.2266" filterUnits="userSpaceOnUse" color-interpolation-filters="sRGB">
<feFlood flood-opacity="0" result="BackgroundImageFix"/>
<feColorMatrix in="SourceAlpha" type="matrix" values="0 0 0 0 0 0 0 0 0 0 0 0 0 0 0 0 0 0 127 0" result="hardAlpha"/>
<feOffset dy="4"/>
<feGaussianBlur stdDeviation="2"/>
<feComposite in2="hardAlpha" operator="out"/>
<feColorMatrix type="matrix" values="0 0 0 0 0 0 0 0 0 0 0 0 0 0 0 0 0 0 0.25 0"/>
<feBlend mode="normal" in2="BackgroundImageFix" result="effect1_dropShadow_180_706"/>
<feBlend mode="normal" in="SourceGraphic" in2="effect1_dropShadow_180_706" result="shape"/>
</filter>
<filter id="filter8_d_180_706" x="122.722" y="67.5898" width="16.084" height="17.2266" filterUnits="userSpaceOnUse" color-interpolation-filters="sRGB">
<feFlood flood-opacity="0" result="BackgroundImageFix"/>
<feColorMatrix in="SourceAlpha" type="matrix" values="0 0 0 0 0 0 0 0 0 0 0 0 0 0 0 0 0 0 127 0" result="hardAlpha"/>
<feOffset dy="4"/>
<feGaussianBlur stdDeviation="2"/>
<feComposite in2="hardAlpha" operator="out"/>
<feColorMatrix type="matrix" values="0 0 0 0 0 0 0 0 0 0 0 0 0 0 0 0 0 0 0.25 0"/>
<feBlend mode="normal" in2="BackgroundImageFix" result="effect1_dropShadow_180_706"/>
<feBlend mode="normal" in="SourceGraphic" in2="effect1_dropShadow_180_706" result="shape"/>
</filter>
<filter id="filter9_d_180_706" x="135.401" y="67.4385" width="15.7188" height="17.5298" filterUnits="userSpaceOnUse" color-interpolation-filters="sRGB">
<feFlood flood-opacity="0" result="BackgroundImageFix"/>
<feColorMatrix in="SourceAlpha" type="matrix" values="0 0 0 0 0 0 0 0 0 0 0 0 0 0 0 0 0 0 127 0" result="hardAlpha"/>
<feOffset dy="4"/>
<feGaussianBlur stdDeviation="2"/>
<feComposite in2="hardAlpha" operator="out"/>
<feColorMatrix type="matrix" values="0 0 0 0 0 0 0 0 0 0 0 0 0 0 0 0 0 0 0.25 0"/>
<feBlend mode="normal" in2="BackgroundImageFix" result="effect1_dropShadow_180_706"/>
<feBlend mode="normal" in="SourceGraphic" in2="effect1_dropShadow_180_706" result="shape"/>
</filter>
<filter id="filter10_d_180_706" x="156.1" y="67.4385" width="18.1387" height="17.5298" filterUnits="userSpaceOnUse" color-interpolation-filters="sRGB">
<feFlood flood-opacity="0" result="BackgroundImageFix"/>
<feColorMatrix in="SourceAlpha" type="matrix" values="0 0 0 0 0 0 0 0 0 0 0 0 0 0 0 0 0 0 127 0" result="hardAlpha"/>
<feOffset dy="4"/>
<feGaussianBlur stdDeviation="2"/>
<feComposite in2="hardAlpha" operator="out"/>
<feColorMatrix type="matrix" values="0 0 0 0 0 0 0 0 0 0 0 0 0 0 0 0 0 0 0.25 0"/>
<feBlend mode="normal" in2="BackgroundImageFix" result="effect1_dropShadow_180_706"/>
<feBlend mode="normal" in="SourceGraphic" in2="effect1_dropShadow_180_706" result="shape"/>
</filter>
<filter id="filter11_d_180_706" x="172.03" y="67.5898" width="15.0029" height="17.2266" filterUnits="userSpaceOnUse" color-interpolation-filters="sRGB">
<feFlood flood-opacity="0" result="BackgroundImageFix"/>
<feColorMatrix in="SourceAlpha" type="matrix" values="0 0 0 0 0 0 0 0 0 0 0 0 0 0 0 0 0 0 127 0" result="hardAlpha"/>
<feOffset dy="4"/>
<feGaussianBlur stdDeviation="2"/>
<feComposite in2="hardAlpha" operator="out"/>
<feColorMatrix type="matrix" values="0 0 0 0 0 0 0 0 0 0 0 0 0 0 0 0 0 0 0.25 0"/>
<feBlend mode="normal" in2="BackgroundImageFix" result="effect1_dropShadow_180_706"/>
<feBlend mode="normal" in="SourceGraphic" in2="effect1_dropShadow_180_706" result="shape"/>
</filter>
<filter id="filter12_d_180_706" x="191.782" y="67.5898" width="22.8281" height="17.2266" filterUnits="userSpaceOnUse" color-interpolation-filters="sRGB">
<feFlood flood-opacity="0" result="BackgroundImageFix"/>
<feColorMatrix in="SourceAlpha" type="matrix" values="0 0 0 0 0 0 0 0 0 0 0 0 0 0 0 0 0 0 127 0" result="hardAlpha"/>
<feOffset dy="4"/>
<feGaussianBlur stdDeviation="2"/>
<feComposite in2="hardAlpha" operator="out"/>
<feColorMatrix type="matrix" values="0 0 0 0 0 0 0 0 0 0 0 0 0 0 0 0 0 0 0.25 0"/>
<feBlend mode="normal" in2="BackgroundImageFix" result="effect1_dropShadow_180_706"/>
<feBlend mode="normal" in="SourceGraphic" in2="effect1_dropShadow_180_706" result="shape"/>
</filter>
<filter id="filter13_d_180_706" x="212.167" y="67.5898" width="15.1855" height="17.2266" filterUnits="userSpaceOnUse" color-interpolation-filters="sRGB">
<feFlood flood-opacity="0" result="BackgroundImageFix"/>
<feColorMatrix in="SourceAlpha" type="matrix" values="0 0 0 0 0 0 0 0 0 0 0 0 0 0 0 0 0 0 127 0" result="hardAlpha"/>
<feOffset dy="4"/>
<feGaussianBlur stdDeviation="2"/>
<feComposite in2="hardAlpha" operator="out"/>
<feColorMatrix type="matrix" values="0 0 0 0 0 0 0 0 0 0 0 0 0 0 0 0 0 0 0.25 0"/>
<feBlend mode="normal" in2="BackgroundImageFix" result="effect1_dropShadow_180_706"/>
<feBlend mode="normal" in="SourceGraphic" in2="effect1_dropShadow_180_706" result="shape"/>
</filter>
<filter id="filter14_d_180_706" x="225.228" y="67.5898" width="14.8047" height="17.2266" filterUnits="userSpaceOnUse" color-interpolation-filters="sRGB">
<feFlood flood-opacity="0" result="BackgroundImageFix"/>
<feColorMatrix in="SourceAlpha" type="matrix" values="0 0 0 0 0 0 0 0 0 0 0 0 0 0 0 0 0 0 127 0" result="hardAlpha"/>
<feOffset dy="4"/>
<feGaussianBlur stdDeviation="2"/>
<feComposite in2="hardAlpha" operator="out"/>
<feColorMatrix type="matrix" values="0 0 0 0 0 0 0 0 0 0 0 0 0 0 0 0 0 0 0.25 0"/>
<feBlend mode="normal" in2="BackgroundImageFix" result="effect1_dropShadow_180_706"/>
<feBlend mode="normal" in="SourceGraphic" in2="effect1_dropShadow_180_706" result="shape"/>
</filter>
<filter id="filter15_d_180_706" x="237.401" y="67.5898" width="14.8047" height="17.2266" filterUnits="userSpaceOnUse" color-interpolation-filters="sRGB">
<feFlood flood-opacity="0" result="BackgroundImageFix"/>
<feColorMatrix in="SourceAlpha" type="matrix" values="0 0 0 0 0 0 0 0 0 0 0 0 0 0 0 0 0 0 127 0" result="hardAlpha"/>
<feOffset dy="4"/>
<feGaussianBlur stdDeviation="2"/>
<feComposite in2="hardAlpha" operator="out"/>
<feColorMatrix type="matrix" values="0 0 0 0 0 0 0 0 0 0 0 0 0 0 0 0 0 0 0.25 0"/>
<feBlend mode="normal" in2="BackgroundImageFix" result="effect1_dropShadow_180_706"/>
<feBlend mode="normal" in="SourceGraphic" in2="effect1_dropShadow_180_706" result="shape"/>
</filter>
<filter id="filter16_d_180_706" x="249.575" y="67.5898" width="16.5098" height="17.2266" filterUnits="userSpaceOnUse" color-interpolation-filters="sRGB">
<feFlood flood-opacity="0" result="BackgroundImageFix"/>
<feColorMatrix in="SourceAlpha" type="matrix" values="0 0 0 0 0 0 0 0 0 0 0 0 0 0 0 0 0 0 127 0" result="hardAlpha"/>
<feOffset dy="4"/>
<feGaussianBlur stdDeviation="2"/>
<feComposite in2="hardAlpha" operator="out"/>
<feColorMatrix type="matrix" values="0 0 0 0 0 0 0 0 0 0 0 0 0 0 0 0 0 0 0.25 0"/>
<feBlend mode="normal" in2="BackgroundImageFix" result="effect1_dropShadow_180_706"/>
<feBlend mode="normal" in="SourceGraphic" in2="effect1_dropShadow_180_706" result="shape"/>
</filter>
<filter id="filter17_d_180_706" x="264.451" y="67.5898" width="15.1855" height="17.2266" filterUnits="userSpaceOnUse" color-interpolation-filters="sRGB">
<feFlood flood-opacity="0" result="BackgroundImageFix"/>
<feColorMatrix in="SourceAlpha" type="matrix" values="0 0 0 0 0 0 0 0 0 0 0 0 0 0 0 0 0 0 127 0" result="hardAlpha"/>
<feOffset dy="4"/>
<feGaussianBlur stdDeviation="2"/>
<feComposite in2="hardAlpha" operator="out"/>
<feColorMatrix type="matrix" values="0 0 0 0 0 0 0 0 0 0 0 0 0 0 0 0 0 0 0.25 0"/>
<feBlend mode="normal" in2="BackgroundImageFix" result="effect1_dropShadow_180_706"/>
<feBlend mode="normal" in="SourceGraphic" in2="effect1_dropShadow_180_706" result="shape"/>
</filter>
<filter id="filter18_d_180_706" x="276.78" y="67.4385" width="15.7188" height="17.5298" filterUnits="userSpaceOnUse" color-interpolation-filters="sRGB">
<feFlood flood-opacity="0" result="BackgroundImageFix"/>
<feColorMatrix in="SourceAlpha" type="matrix" values="0 0 0 0 0 0 0 0 0 0 0 0 0 0 0 0 0 0 127 0" result="hardAlpha"/>
<feOffset dy="4"/>
<feGaussianBlur stdDeviation="2"/>
<feComposite in2="hardAlpha" operator="out"/>
<feColorMatrix type="matrix" values="0 0 0 0 0 0 0 0 0 0 0 0 0 0 0 0 0 0 0.25 0"/>
<feBlend mode="normal" in2="BackgroundImageFix" result="effect1_dropShadow_180_706"/>
<feBlend mode="normal" in="SourceGraphic" in2="effect1_dropShadow_180_706" result="shape"/>
</filter>
<filter id="filter19_d_180_706" x="289.405" y="67.4385" width="15.7188" height="17.5298" filterUnits="userSpaceOnUse" color-interpolation-filters="sRGB">
<feFlood flood-opacity="0" result="BackgroundImageFix"/>
<feColorMatrix in="SourceAlpha" type="matrix" values="0 0 0 0 0 0 0 0 0 0 0 0 0 0 0 0 0 0 127 0" result="hardAlpha"/>
<feOffset dy="4"/>
<feGaussianBlur stdDeviation="2"/>
<feComposite in2="hardAlpha" operator="out"/>
<feColorMatrix type="matrix" values="0 0 0 0 0 0 0 0 0 0 0 0 0 0 0 0 0 0 0.25 0"/>
<feBlend mode="normal" in2="BackgroundImageFix" result="effect1_dropShadow_180_706"/>
<feBlend mode="normal" in="SourceGraphic" in2="effect1_dropShadow_180_706" result="shape"/>
</filter>
</defs>
</svg>
