<svg width="309" height="127" viewBox="0 0 309 127" fill="none" xmlns="http://www.w3.org/2000/svg">
<g filter="url(#filter0_d_180_706)">
<mask id="mask0_180_706" style="mask-type:luminance" maskUnits="userSpaceOnUse" x="55" y="0" width="27" height="119">
<path d="M55.4326 0H81.168V3.23085H55.4326V0ZM60.072 3.23085H76.5325V115.386H60.072V3.23085ZM55.4326 115.386H81.168V118.602H55.4326V115.386Z" fill="white"/>
</mask>
<g mask="url(#mask0_180_706)">
<path d="M55.4326 0H81.168V118.557H55.4326V84.5809H77V59H55.4326V0Z" fill="black"/>
</g>
</g>
<g filter="url(#filter1_d_180_706)">
<mask id="mask1_180_706" style="mask-type:luminance" maskUnits="userSpaceOnUse" x="4" y="0" width="47" height="119">
<path d="M4 0.355957H50.3253V119H4V0.355957Z" fill="white"/>
</mask>
<g mask="url(#mask1_180_706)">
<mask id="mask2_180_706" style="mask-type:luminance" maskUnits="userSpaceOnUse" x="4" y="0" width="47" height="119">
<path d="M4 0.355957H34.371V4.09056H25.4233V115.239H28.4604C33.2368 115.239 37.0541 112.299 39.9009 106.421C42.7439 100.539 45.6174 91.5091 48.5479 79.3016H50.3253L48.723 118.947H4V115.212H8.9781V4.09056H4V0.355957Z" fill="white"/>
</mask>
<g mask="url(#mask2_180_706)">
<path d="M4 0.355957H50.3253V119H4V84.5746H28V59H4V0.355957Z" fill="black"/>
</g>
</g>
</g>
<g filter="url(#filter2_d_180_706)">
<mask id="mask3_180_706" style="mask-type:luminance" maskUnits="userSpaceOnUse" x="86" y="0" width="46" height="119">
<path d="M86.4814 0H131.208V118.701H86.4814V0Z" fill="white"/>
</mask>
<g mask="url(#mask3_180_706)">
<mask id="mask4_180_706" style="mask-type:luminance" maskUnits="userSpaceOnUse" x="86" y="0" width="46" height="119">
<path d="M86.4814 0H130.36L131.208 35.2477H129.69C127.608 23.0402 125.203 14.7528 122.478 10.3289C119.756 5.93144 115.68 3.73461 110.287 3.73461H107.92V58.7917H111.726C114.42 58.7917 116.677 56.8069 118.47 52.8602C120.274 48.9135 121.507 43.4858 122.177 36.5999H123.448V86.7595H122.013C121.111 78.2828 119.867 72.2453 118.264 68.6433C116.662 65.0413 114.474 63.2156 111.726 63.2156H107.92V114.883H118.386V118.602H86.4814V114.883H91.4595V3.73461H86.4814V0Z" fill="white"/>
</mask>
<g mask="url(#mask4_180_706)">
<path d="M86.4998 -0.0795898H131.227L129.018 78.4204V86.4999V118.5H86.4998V84.5142L105 84.757L114.25 84.8784L125 88.9999V84.8784L125.984 59H86.4845L86.4998 -0.0795898Z" fill="black"/>
</g>
</g>
</g>
<g filter="url(#filter3_d_180_706)">
<mask id="mask5_180_706" style="mask-type:luminance" maskUnits="userSpaceOnUse" x="136" y="0" width="52" height="119">
<path d="M136.315 0H187.908V118.64H136.315V0Z" fill="white"/>
</mask>
<g mask="url(#mask5_180_706)">
<mask id="mask6_180_706" style="mask-type:luminance" maskUnits="userSpaceOnUse" x="136" y="0" width="52" height="119">
<path d="M186.953 0L187.798 42.5313H186.199C183.725 27.5172 181.533 17.2678 179.619 11.7871C177.704 6.30262 174.953 3.57553 171.356 3.57553H170.344V115.042H177.499V118.591H146.702V115.042H153.868V3.54901H152.776C149.176 3.54901 146.386 6.40868 144.414 12.1053C142.447 17.8246 140.285 27.9679 137.918 42.5313H136.315L137.164 0H186.953Z" fill="white"/>
</mask>
<g mask="url(#mask6_180_706)">
<path d="M136.315 0H187.786V59.32V118.64H136.315L153.5 84.5H170.5L171.5 59H136.315V0Z" fill="black"/>
</g>
</g>
</g>
<g filter="url(#filter4_d_180_706)">
<mask id="mask7_180_706" style="mask-type:luminance" maskUnits="userSpaceOnUse" x="192" y="0" width="48" height="119">
<path d="M192.894 0.355957H239.752V118.682H192.894V0.355957Z" fill="white"/>
</mask>
<g mask="url(#mask7_180_706)">
<mask id="mask8_180_706" style="mask-type:luminance" maskUnits="userSpaceOnUse" x="192" y="0" width="48" height="119">
<path d="M192.894 0.355957H236.642L237.487 33.8083H235.972C233.613 22.4303 231.143 14.6391 228.566 10.4159C225.99 6.1927 222.195 4.0792 217.202 4.0792H214.256V56.2804H217.122C219.756 56.2804 221.978 54.2729 223.763 50.2845C225.567 46.3 226.819 40.9102 227.558 34.153H228.825V84.1611H227.394C226.385 75.7109 225.019 69.6924 223.314 66.1017C221.609 62.511 219.265 60.6892 216.288 60.6892H214.271V114.894H217.464C222.618 114.894 227.01 111.803 230.625 105.599C234.241 99.4215 236.722 91.4751 238.073 81.7825H239.752L239.082 118.602H192.894V114.894H197.86V4.0792H192.894V0.355957Z" fill="white"/>
</mask>
<g mask="url(#mask8_180_706)">
<path d="M192.893 0.355957H239.751V118.564H191.628L191.628 84.6033H229V59H192.893V0.355957Z" fill="black"/>
</g>
</g>
</g>
<g filter="url(#filter5_d_180_706)">
<mask id="mask9_180_706" style="mask-type:luminance" maskUnits="userSpaceOnUse" x="244" y="0" width="60" height="119">
<path d="M244.859 0H303.337V118.689H244.859V0Z" fill="white"/>
</mask>
<g mask="url(#mask9_180_706)">
<mask id="mask10_180_706" style="mask-type:luminance" maskUnits="userSpaceOnUse" x="244" y="0" width="60" height="119">
<path d="M303.337 57.2577C303.337 80.5365 300.068 96.7437 293.556 105.88C287.535 114.352 279.272 118.591 268.749 118.591H244.859V115.36H250.427V3.23085H244.859V0H270.937C281.735 0 289.849 4.42396 295.238 13.2946C300.642 22.1652 303.337 36.812 303.337 57.2577ZM266.888 115.36H270.089C275.767 115.36 279.832 111.334 282.283 103.258C284.73 95.1795 285.948 81.6462 285.948 62.6853V52.8602C285.948 27.4376 283.527 12.1583 278.698 6.93894C276.384 4.45047 273.13 3.20434 268.913 3.20434H266.888V115.36Z" fill="white"/>
</mask>
<g mask="url(#mask10_180_706)">
<path d="M244.859 0H303.337V59H285.881L285 84.5H301.5V119L244.859 118.568V97L250.5 84.5H267V59H250.5L244.859 0Z" fill="black"/>
</g>
</g>
</g>
<g filter="url(#filter6_d_180_706)">
<path d="M18.1311 67.5898V76.8165H16.3651L11.7372 71.2108V76.8165H9.62109V67.5898H11.4022L16.015 73.1955V67.5898H18.1311Z" fill="black"/>
</g>
<g filter="url(#filter7_d_180_706)">
<path d="M31.6826 75.1045V76.8165H24.4971V67.5898H31.4999V69.3019H26.6284V71.3017H30.9366V72.9683H26.6284V75.1045H31.6826Z" fill="black"/>
</g>
<g filter="url(#filter8_d_180_706)">
<path d="M51.5787 67.5898L48.534 76.8165H46.2352L44.1953 70.5745L42.0944 76.8165H39.7957L36.751 67.5898H38.9736L41.0745 74.0743L43.2514 67.5898H45.2457L47.3618 74.1349L49.5235 67.5898H51.5787Z" fill="black"/>
</g>
<g filter="url(#filter9_d_180_706)">
<path d="M73.5676 67.5898V76.8165H71.4211V73.0289H67.2041V76.8165H65.0576V67.5898H67.2041V71.226H71.4211V67.5898H73.5676Z" fill="black"/>
</g>
<g filter="url(#filter10_d_180_706)">
<path d="M87.1181 75.1045V76.8165H79.9326V67.5898H86.9355V69.3019H82.0639V71.3017H86.3722V72.9683H82.0639V75.1045H87.1181Z" fill="black"/>
</g>
<g filter="url(#filter11_d_180_706)">
<path d="M92.9932 67.5898H95.1397V76.8165H92.9932V67.5898Z" fill="black"/>
</g>
<g filter="url(#filter12_d_180_706)">
<path d="M107.783 72.0594H109.732V75.8016C109.233 76.1765 108.651 76.4644 107.981 76.6652C107.319 76.8659 106.657 76.9682 105.987 76.9682C105.02 76.9682 104.152 76.7674 103.384 76.3621C102.622 75.9607 102.021 75.3925 101.587 74.6653C101.15 73.9381 100.933 73.1199 100.933 72.2109C100.933 71.2943 101.15 70.4686 101.587 69.7414C102.021 69.0141 102.626 68.4498 103.399 68.0445C104.179 67.643 105.058 67.4385 106.033 67.4385C106.843 67.4385 107.578 67.5748 108.24 67.8475C108.898 68.1203 109.458 68.5142 109.915 69.0293L108.529 70.2868C107.867 69.6012 107.072 69.2565 106.139 69.2565C105.549 69.2565 105.02 69.3777 104.556 69.6202C104.099 69.8626 103.741 70.211 103.49 70.6655C103.235 71.1125 103.11 71.6276 103.11 72.2109C103.11 72.779 103.235 73.2866 103.49 73.7411C103.741 74.188 104.099 74.5365 104.556 74.7865C105.013 75.0289 105.53 75.1501 106.109 75.1501C106.725 75.1501 107.285 75.0213 107.783 74.7562V72.0594Z" fill="black"/>
</g>
<g filter="url(#filter13_d_180_706)">
<path d="M124.407 67.5898V76.8165H122.261V73.0289H118.044V76.8165H115.897V67.5898H118.044V71.226H122.261V67.5898H124.407Z" fill="black"/>
</g>
<g filter="url(#filter14_d_180_706)">
<path d="M132.69 69.3322H129.722V67.5898H137.805V69.3322H134.837V76.8165H132.69V69.3322Z" fill="black"/>
</g>
<g filter="url(#filter15_d_180_706)">
<path d="M146.177 76.9682C145.446 76.9682 144.734 76.8697 144.046 76.6803C143.364 76.4796 142.816 76.222 142.401 75.9076L143.132 74.3017C143.528 74.5971 144 74.8281 144.548 74.9986C145.096 75.1728 145.644 75.2562 146.192 75.2562C146.801 75.2562 147.25 75.1728 147.547 74.9986C147.84 74.8168 147.988 74.5744 147.988 74.2714C147.988 74.0517 147.901 73.8699 147.73 73.7259C147.555 73.5858 147.334 73.4684 147.06 73.3775C146.793 73.2866 146.428 73.1919 145.964 73.0896C145.263 72.9192 144.685 72.7525 144.228 72.5897C143.779 72.4192 143.395 72.1503 143.071 71.7867C142.755 71.4155 142.599 70.9193 142.599 70.3019C142.599 69.7679 142.74 69.2831 143.026 68.8475C143.319 68.4157 143.76 68.071 144.35 67.8172C144.936 67.5673 145.652 67.4385 146.497 67.4385C147.083 67.4385 147.661 67.5104 148.232 67.6506C148.799 67.7832 149.298 67.9839 149.724 68.2566L149.054 69.8777C148.202 69.3929 147.341 69.1505 146.481 69.1505C145.88 69.1505 145.438 69.249 145.157 69.4383C144.871 69.6315 144.731 69.8853 144.731 70.1959C144.731 70.5216 144.89 70.7564 145.218 70.9079C145.553 71.0595 146.059 71.211 146.74 71.3625C147.44 71.5253 148.011 71.692 148.46 71.8624C148.917 72.0253 149.305 72.2866 149.633 72.6503C149.956 73.0139 150.12 73.5063 150.12 74.1199C150.12 74.6463 149.967 75.1274 149.663 75.5592C149.366 75.9947 148.925 76.3394 148.339 76.5894C147.749 76.8394 147.029 76.9682 146.177 76.9682Z" fill="black"/>
</g>
<g filter="url(#filter16_d_180_706)">
<path d="M168.169 76.9682C167.202 76.9682 166.335 76.7674 165.566 76.3621C164.793 75.9493 164.188 75.3774 163.754 74.6501C163.317 73.9229 163.1 73.1124 163.1 72.2109C163.1 71.3019 163.317 70.4837 163.754 69.7565C164.188 69.0293 164.793 68.4649 165.566 68.0596C166.335 67.6468 167.202 67.4385 168.169 67.4385C169.132 67.4385 169.996 67.6468 170.757 68.0596C171.526 68.4649 172.131 69.0293 172.569 69.7565C173.014 70.4837 173.238 71.3019 173.238 72.2109C173.238 73.1124 173.014 73.9229 172.569 74.6501C172.131 75.3774 171.526 75.9493 170.757 76.3621C169.996 76.7674 169.132 76.9682 168.169 76.9682ZM168.169 75.1501C168.717 75.1501 169.208 75.0289 169.646 74.7865C170.091 74.5365 170.441 74.188 170.696 73.7411C170.947 73.2866 171.077 72.779 171.077 72.2109C171.077 71.6352 170.947 71.1276 170.696 70.6807C170.441 70.2262 170.091 69.8777 169.646 69.6353C169.208 69.3853 168.717 69.2565 168.169 69.2565C167.621 69.2565 167.122 69.3853 166.677 69.6353C166.239 69.8777 165.893 70.2262 165.642 70.6807C165.398 71.1276 165.277 71.6352 165.277 72.2109C165.277 72.779 165.398 73.2866 165.642 73.7411C165.893 74.188 166.239 74.5365 166.677 74.7865C167.122 75.0289 167.621 75.1501 168.169 75.1501Z" fill="black"/>
</g>
<g filter="url(#filter17_d_180_706)">
<path d="M181.177 69.3019V71.7411H185.47V73.4531H181.177V76.8165H179.03V67.5898H186.033V69.3019H181.177Z" fill="black"/>
</g>
<g filter="url(#filter18_d_180_706)">
<path d="M213.61 67.5898L210.565 76.8165H208.266L206.227 70.5745L204.126 76.8165H201.827L198.782 67.5898H201.005L203.106 74.0743L205.283 67.5898H207.277L209.393 74.1349L211.555 67.5898H213.61Z" fill="black"/>
</g>
<g filter="url(#filter19_d_180_706)">
<path d="M226.353 75.1045V76.8165H219.167V67.5898H226.17V69.3019H221.298V71.3017H225.607V72.9683H221.298V75.1045H226.353Z" fill="black"/>
</g>
<g filter="url(#filter20_d_180_706)">
<path d="M232.228 67.5898H234.374V75.0742H239.032V76.8165H232.228V67.5898Z" fill="black"/>
</g>
<g filter="url(#filter21_d_180_706)">
<path d="M244.401 67.5898H246.548V75.0742H251.206V76.8165H244.401V67.5898Z" fill="black"/>
</g>
<g filter="url(#filter22_d_180_706)">
<path d="M265.085 67.5898V76.8165H263.319L258.691 71.2108V76.8165H256.575V67.5898H258.356L262.969 73.1955V67.5898H265.085Z" fill="black"/>
</g>
<g filter="url(#filter23_d_180_706)">
<path d="M278.637 75.1045V76.8165H271.451V67.5898H278.454V69.3019H273.582V71.3017H277.891V72.9683H273.582V75.1045H278.637Z" fill="black"/>
</g>
<g filter="url(#filter24_d_180_706)">
<path d="M287.556 76.9682C286.825 76.9682 286.113 76.8697 285.424 76.6803C284.743 76.4796 284.195 76.222 283.78 75.9076L284.511 74.3017C284.907 74.5971 285.379 74.8281 285.927 74.9986C286.475 75.1728 287.023 75.2562 287.571 75.2562C288.18 75.2562 288.629 75.1728 288.926 74.9986C289.219 74.8168 289.367 74.5744 289.367 74.2714C289.367 74.0517 289.28 73.8699 289.109 73.7259C288.933 73.5858 288.713 73.4684 288.439 73.3775C288.172 73.2866 287.807 73.1919 287.343 73.0896C286.642 72.9192 286.064 72.7525 285.607 72.5897C285.158 72.4192 284.774 72.1503 284.45 71.7867C284.134 71.4155 283.978 70.9193 283.978 70.3019C283.978 69.7679 284.119 69.2831 284.404 68.8475C284.697 68.4157 285.139 68.071 285.729 67.8172C286.315 67.5673 287.031 67.4385 287.875 67.4385C288.462 67.4385 289.04 67.5104 289.611 67.6506C290.178 67.7832 290.677 67.9839 291.103 68.2566L290.433 69.8777C289.58 69.3929 288.72 69.1505 287.86 69.1505C287.259 69.1505 286.817 69.249 286.536 69.4383C286.25 69.6315 286.109 69.8853 286.109 70.1959C286.109 70.5216 286.269 70.7564 286.597 70.9079C286.932 71.0595 287.438 71.211 288.119 71.3625C288.819 71.5253 289.39 71.692 289.839 71.8624C290.296 72.0253 290.684 72.2866 291.011 72.6503C291.335 73.0139 291.499 73.5063 291.499 74.1199C291.499 74.6463 291.346 75.1274 291.042 75.5592C290.745 75.9947 290.304 76.3394 289.717 76.5894C289.128 76.8394 288.408 76.9682 287.556 76.9682Z" fill="black"/>
</g>
<g filter="url(#filter25_d_180_706)">
<path d="M300.181 76.9682C299.45 76.9682 298.738 76.8697 298.049 76.6803C297.368 76.4796 296.82 76.222 296.405 75.9076L297.136 74.3017C297.532 74.5971 298.004 74.8281 298.552 74.9986C299.1 75.1728 299.648 75.2562 300.196 75.2562C300.805 75.2562 301.254 75.1728 301.551 74.9986C301.844 74.8168 301.992 74.5744 301.992 74.2714C301.992 74.0517 301.905 73.8699 301.734 73.7259C301.558 73.5858 301.338 73.4684 301.064 73.3775C300.797 73.2866 300.432 73.1919 299.968 73.0896C299.267 72.9192 298.689 72.7525 298.232 72.5897C297.783 72.4192 297.399 72.1503 297.075 71.7867C296.759 71.4155 296.603 70.9193 296.603 70.3019C296.603 69.7679 296.744 69.2831 297.029 68.8475C297.322 68.4157 297.764 68.071 298.354 67.8172C298.94 67.5673 299.656 67.4385 300.5 67.4385C301.087 67.4385 301.665 67.5104 302.236 67.6506C302.803 67.7832 303.302 67.9839 303.728 68.2566L303.058 69.8777C302.205 69.3929 301.345 69.1505 300.485 69.1505C299.884 69.1505 299.442 69.249 299.161 69.4383C298.875 69.6315 298.734 69.8853 298.734 70.1959C298.734 70.5216 298.894 70.7564 299.222 70.9079C299.557 71.0595 300.063 71.211 300.744 71.3625C301.444 71.5253 302.015 71.692 302.464 71.8624C302.921 72.0253 303.309 72.2866 303.636 72.6503C303.96 73.0139 304.124 73.5063 304.124 74.1199C304.124 74.6463 303.971 75.1274 303.667 75.5592C303.37 75.9947 302.929 76.3394 302.342 76.5894C301.753 76.8394 301.033 76.9682 300.181 76.9682Z" fill="black"/>
</g>
<defs>
<filter id="filter0_d_180_706" x="51.4326" y="0" width="33.7354" height="126.557" filterUnits="userSpaceOnUse" color-interpolation-filters="sRGB">
<feFlood flood-opacity="0" result="BackgroundImageFix"/>
<feColorMatrix in="SourceAlpha" type="matrix" values="0 0 0 0 0 0 0 0 0 0 0 0 0 0 0 0 0 0 127 0" result="hardAlpha"/>
<feOffset dy="4"/>
<feGaussianBlur stdDeviation="2"/>
<feComposite in2="hardAlpha" operator="out"/>
<feColorMatrix type="matrix" values="0 0 0 0 0 0 0 0 0 0 0 0 0 0 0 0 0 0 0.25 0"/>
<feBlend mode="normal" in2="BackgroundImageFix" result="effect1_dropShadow_180_706"/>
<feBlend mode="normal" in="SourceGraphic" in2="effect1_dropShadow_180_706" result="shape"/>
</filter>
<filter id="filter1_d_180_706" x="0" y="0.355957" width="54.3252" height="126.591" filterUnits="userSpaceOnUse" color-interpolation-filters="sRGB">
<feFlood flood-opacity="0" result="BackgroundImageFix"/>
<feColorMatrix in="SourceAlpha" type="matrix" values="0 0 0 0 0 0 0 0 0 0 0 0 0 0 0 0 0 0 127 0" result="hardAlpha"/>
<feOffset dy="4"/>
<feGaussianBlur stdDeviation="2"/>
<feComposite in2="hardAlpha" operator="out"/>
<feColorMatrix type="matrix" values="0 0 0 0 0 0 0 0 0 0 0 0 0 0 0 0 0 0 0.25 0"/>
<feBlend mode="normal" in2="BackgroundImageFix" result="effect1_dropShadow_180_706"/>
<feBlend mode="normal" in="SourceGraphic" in2="effect1_dropShadow_180_706" result="shape"/>
</filter>
<filter id="filter2_d_180_706" x="82.4844" y="0" width="52.7236" height="126.5" filterUnits="userSpaceOnUse" color-interpolation-filters="sRGB">
<feFlood flood-opacity="0" result="BackgroundImageFix"/>
<feColorMatrix in="SourceAlpha" type="matrix" values="0 0 0 0 0 0 0 0 0 0 0 0 0 0 0 0 0 0 127 0" result="hardAlpha"/>
<feOffset dy="4"/>
<feGaussianBlur stdDeviation="2"/>
<feComposite in2="hardAlpha" operator="out"/>
<feColorMatrix type="matrix" values="0 0 0 0 0 0 0 0 0 0 0 0 0 0 0 0 0 0 0.25 0"/>
<feBlend mode="normal" in2="BackgroundImageFix" result="effect1_dropShadow_180_706"/>
<feBlend mode="normal" in="SourceGraphic" in2="effect1_dropShadow_180_706" result="shape"/>
</filter>
<filter id="filter3_d_180_706" x="132.315" y="0" width="59.4707" height="126.591" filterUnits="userSpaceOnUse" color-interpolation-filters="sRGB">
<feFlood flood-opacity="0" result="BackgroundImageFix"/>
<feColorMatrix in="SourceAlpha" type="matrix" values="0 0 0 0 0 0 0 0 0 0 0 0 0 0 0 0 0 0 127 0" result="hardAlpha"/>
<feOffset dy="4"/>
<feGaussianBlur stdDeviation="2"/>
<feComposite in2="hardAlpha" operator="out"/>
<feColorMatrix type="matrix" values="0 0 0 0 0 0 0 0 0 0 0 0 0 0 0 0 0 0 0.25 0"/>
<feBlend mode="normal" in2="BackgroundImageFix" result="effect1_dropShadow_180_706"/>
<feBlend mode="normal" in="SourceGraphic" in2="effect1_dropShadow_180_706" result="shape"/>
</filter>
<filter id="filter4_d_180_706" x="188.894" y="0.355957" width="54.8574" height="126.208" filterUnits="userSpaceOnUse" color-interpolation-filters="sRGB">
<feFlood flood-opacity="0" result="BackgroundImageFix"/>
<feColorMatrix in="SourceAlpha" type="matrix" values="0 0 0 0 0 0 0 0 0 0 0 0 0 0 0 0 0 0 127 0" result="hardAlpha"/>
<feOffset dy="4"/>
<feGaussianBlur stdDeviation="2"/>
<feComposite in2="hardAlpha" operator="out"/>
<feColorMatrix type="matrix" values="0 0 0 0 0 0 0 0 0 0 0 0 0 0 0 0 0 0 0.25 0"/>
<feBlend mode="normal" in2="BackgroundImageFix" result="effect1_dropShadow_180_706"/>
<feBlend mode="normal" in="SourceGraphic" in2="effect1_dropShadow_180_706" result="shape"/>
</filter>
<filter id="filter5_d_180_706" x="240.859" y="0" width="66.4775" height="126.591" filterUnits="userSpaceOnUse" color-interpolation-filters="sRGB">
<feFlood flood-opacity="0" result="BackgroundImageFix"/>
<feColorMatrix in="SourceAlpha" type="matrix" values="0 0 0 0 0 0 0 0 0 0 0 0 0 0 0 0 0 0 127 0" result="hardAlpha"/>
<feOffset dy="4"/>
<feGaussianBlur stdDeviation="2"/>
<feComposite in2="hardAlpha" operator="out"/>
<feColorMatrix type="matrix" values="0 0 0 0 0 0 0 0 0 0 0 0 0 0 0 0 0 0 0.25 0"/>
<feBlend mode="normal" in2="BackgroundImageFix" result="effect1_dropShadow_180_706"/>
<feBlend mode="normal" in="SourceGraphic" in2="effect1_dropShadow_180_706" result="shape"/>
</filter>
<filter id="filter6_d_180_706" x="5.62109" y="67.5898" width="16.5098" height="17.2266" filterUnits="userSpaceOnUse" color-interpolation-filters="sRGB">
<feFlood flood-opacity="0" result="BackgroundImageFix"/>
<feColorMatrix in="SourceAlpha" type="matrix" values="0 0 0 0 0 0 0 0 0 0 0 0 0 0 0 0 0 0 127 0" result="hardAlpha"/>
<feOffset dy="4"/>
<feGaussianBlur stdDeviation="2"/>
<feComposite in2="hardAlpha" operator="out"/>
<feColorMatrix type="matrix" values="0 0 0 0 0 0 0 0 0 0 0 0 0 0 0 0 0 0 0.25 0"/>
<feBlend mode="normal" in2="BackgroundImageFix" result="effect1_dropShadow_180_706"/>
<feBlend mode="normal" in="SourceGraphic" in2="effect1_dropShadow_180_706" result="shape"/>
</filter>
<filter id="filter7_d_180_706" x="20.4971" y="67.5898" width="15.1855" height="17.2266" filterUnits="userSpaceOnUse" color-interpolation-filters="sRGB">
<feFlood flood-opacity="0" result="BackgroundImageFix"/>
<feColorMatrix in="SourceAlpha" type="matrix" values="0 0 0 0 0 0 0 0 0 0 0 0 0 0 0 0 0 0 127 0" result="hardAlpha"/>
<feOffset dy="4"/>
<feGaussianBlur stdDeviation="2"/>
<feComposite in2="hardAlpha" operator="out"/>
<feColorMatrix type="matrix" values="0 0 0 0 0 0 0 0 0 0 0 0 0 0 0 0 0 0 0.25 0"/>
<feBlend mode="normal" in2="BackgroundImageFix" result="effect1_dropShadow_180_706"/>
<feBlend mode="normal" in="SourceGraphic" in2="effect1_dropShadow_180_706" result="shape"/>
</filter>
<filter id="filter8_d_180_706" x="32.751" y="67.5898" width="22.8281" height="17.2266" filterUnits="userSpaceOnUse" color-interpolation-filters="sRGB">
<feFlood flood-opacity="0" result="BackgroundImageFix"/>
<feColorMatrix in="SourceAlpha" type="matrix" values="0 0 0 0 0 0 0 0 0 0 0 0 0 0 0 0 0 0 127 0" result="hardAlpha"/>
<feOffset dy="4"/>
<feGaussianBlur stdDeviation="2"/>
<feComposite in2="hardAlpha" operator="out"/>
<feColorMatrix type="matrix" values="0 0 0 0 0 0 0 0 0 0 0 0 0 0 0 0 0 0 0.25 0"/>
<feBlend mode="normal" in2="BackgroundImageFix" result="effect1_dropShadow_180_706"/>
<feBlend mode="normal" in="SourceGraphic" in2="effect1_dropShadow_180_706" result="shape"/>
</filter>
<filter id="filter9_d_180_706" x="61.0576" y="67.5898" width="16.5098" height="17.2266" filterUnits="userSpaceOnUse" color-interpolation-filters="sRGB">
<feFlood flood-opacity="0" result="BackgroundImageFix"/>
<feColorMatrix in="SourceAlpha" type="matrix" values="0 0 0 0 0 0 0 0 0 0 0 0 0 0 0 0 0 0 127 0" result="hardAlpha"/>
<feOffset dy="4"/>
<feGaussianBlur stdDeviation="2"/>
<feComposite in2="hardAlpha" operator="out"/>
<feColorMatrix type="matrix" values="0 0 0 0 0 0 0 0 0 0 0 0 0 0 0 0 0 0 0.25 0"/>
<feBlend mode="normal" in2="BackgroundImageFix" result="effect1_dropShadow_180_706"/>
<feBlend mode="normal" in="SourceGraphic" in2="effect1_dropShadow_180_706" result="shape"/>
</filter>
<filter id="filter10_d_180_706" x="75.9326" y="67.5898" width="15.1855" height="17.2266" filterUnits="userSpaceOnUse" color-interpolation-filters="sRGB">
<feFlood flood-opacity="0" result="BackgroundImageFix"/>
<feColorMatrix in="SourceAlpha" type="matrix" values="0 0 0 0 0 0 0 0 0 0 0 0 0 0 0 0 0 0 127 0" result="hardAlpha"/>
<feOffset dy="4"/>
<feGaussianBlur stdDeviation="2"/>
<feComposite in2="hardAlpha" operator="out"/>
<feColorMatrix type="matrix" values="0 0 0 0 0 0 0 0 0 0 0 0 0 0 0 0 0 0 0.25 0"/>
<feBlend mode="normal" in2="BackgroundImageFix" result="effect1_dropShadow_180_706"/>
<feBlend mode="normal" in="SourceGraphic" in2="effect1_dropShadow_180_706" result="shape"/>
</filter>
<filter id="filter11_d_180_706" x="88.9932" y="67.5898" width="10.1465" height="17.2266" filterUnits="userSpaceOnUse" color-interpolation-filters="sRGB">
<feFlood flood-opacity="0" result="BackgroundImageFix"/>
<feColorMatrix in="SourceAlpha" type="matrix" values="0 0 0 0 0 0 0 0 0 0 0 0 0 0 0 0 0 0 127 0" result="hardAlpha"/>
<feOffset dy="4"/>
<feGaussianBlur stdDeviation="2"/>
<feComposite in2="hardAlpha" operator="out"/>
<feColorMatrix type="matrix" values="0 0 0 0 0 0 0 0 0 0 0 0 0 0 0 0 0 0 0.25 0"/>
<feBlend mode="normal" in2="BackgroundImageFix" result="effect1_dropShadow_180_706"/>
<feBlend mode="normal" in="SourceGraphic" in2="effect1_dropShadow_180_706" result="shape"/>
</filter>
<filter id="filter12_d_180_706" x="96.9326" y="67.4385" width="16.9814" height="17.5298" filterUnits="userSpaceOnUse" color-interpolation-filters="sRGB">
<feFlood flood-opacity="0" result="BackgroundImageFix"/>
<feColorMatrix in="SourceAlpha" type="matrix" values="0 0 0 0 0 0 0 0 0 0 0 0 0 0 0 0 0 0 127 0" result="hardAlpha"/>
<feOffset dy="4"/>
<feGaussianBlur stdDeviation="2"/>
<feComposite in2="hardAlpha" operator="out"/>
<feColorMatrix type="matrix" values="0 0 0 0 0 0 0 0 0 0 0 0 0 0 0 0 0 0 0.25 0"/>
<feBlend mode="normal" in2="BackgroundImageFix" result="effect1_dropShadow_180_706"/>
<feBlend mode="normal" in="SourceGraphic" in2="effect1_dropShadow_180_706" result="shape"/>
</filter>
<filter id="filter13_d_180_706" x="111.897" y="67.5898" width="16.5098" height="17.2266" filterUnits="userSpaceOnUse" color-interpolation-filters="sRGB">
<feFlood flood-opacity="0" result="BackgroundImageFix"/>
<feColorMatrix in="SourceAlpha" type="matrix" values="0 0 0 0 0 0 0 0 0 0 0 0 0 0 0 0 0 0 127 0" result="hardAlpha"/>
<feOffset dy="4"/>
<feGaussianBlur stdDeviation="2"/>
<feComposite in2="hardAlpha" operator="out"/>
<feColorMatrix type="matrix" values="0 0 0 0 0 0 0 0 0 0 0 0 0 0 0 0 0 0 0.25 0"/>
<feBlend mode="normal" in2="BackgroundImageFix" result="effect1_dropShadow_180_706"/>
<feBlend mode="normal" in="SourceGraphic" in2="effect1_dropShadow_180_706" result="shape"/>
</filter>
<filter id="filter14_d_180_706" x="125.722" y="67.5898" width="16.084" height="17.2266" filterUnits="userSpaceOnUse" color-interpolation-filters="sRGB">
<feFlood flood-opacity="0" result="BackgroundImageFix"/>
<feColorMatrix in="SourceAlpha" type="matrix" values="0 0 0 0 0 0 0 0 0 0 0 0 0 0 0 0 0 0 127 0" result="hardAlpha"/>
<feOffset dy="4"/>
<feGaussianBlur stdDeviation="2"/>
<feComposite in2="hardAlpha" operator="out"/>
<feColorMatrix type="matrix" values="0 0 0 0 0 0 0 0 0 0 0 0 0 0 0 0 0 0 0.25 0"/>
<feBlend mode="normal" in2="BackgroundImageFix" result="effect1_dropShadow_180_706"/>
<feBlend mode="normal" in="SourceGraphic" in2="effect1_dropShadow_180_706" result="shape"/>
</filter>
<filter id="filter15_d_180_706" x="138.401" y="67.4385" width="15.7188" height="17.5298" filterUnits="userSpaceOnUse" color-interpolation-filters="sRGB">
<feFlood flood-opacity="0" result="BackgroundImageFix"/>
<feColorMatrix in="SourceAlpha" type="matrix" values="0 0 0 0 0 0 0 0 0 0 0 0 0 0 0 0 0 0 127 0" result="hardAlpha"/>
<feOffset dy="4"/>
<feGaussianBlur stdDeviation="2"/>
<feComposite in2="hardAlpha" operator="out"/>
<feColorMatrix type="matrix" values="0 0 0 0 0 0 0 0 0 0 0 0 0 0 0 0 0 0 0.25 0"/>
<feBlend mode="normal" in2="BackgroundImageFix" result="effect1_dropShadow_180_706"/>
<feBlend mode="normal" in="SourceGraphic" in2="effect1_dropShadow_180_706" result="shape"/>
</filter>
<filter id="filter16_d_180_706" x="159.1" y="67.4385" width="18.1387" height="17.5298" filterUnits="userSpaceOnUse" color-interpolation-filters="sRGB">
<feFlood flood-opacity="0" result="BackgroundImageFix"/>
<feColorMatrix in="SourceAlpha" type="matrix" values="0 0 0 0 0 0 0 0 0 0 0 0 0 0 0 0 0 0 127 0" result="hardAlpha"/>
<feOffset dy="4"/>
<feGaussianBlur stdDeviation="2"/>
<feComposite in2="hardAlpha" operator="out"/>
<feColorMatrix type="matrix" values="0 0 0 0 0 0 0 0 0 0 0 0 0 0 0 0 0 0 0.25 0"/>
<feBlend mode="normal" in2="BackgroundImageFix" result="effect1_dropShadow_180_706"/>
<feBlend mode="normal" in="SourceGraphic" in2="effect1_dropShadow_180_706" result="shape"/>
</filter>
<filter id="filter17_d_180_706" x="175.03" y="67.5898" width="15.0029" height="17.2266" filterUnits="userSpaceOnUse" color-interpolation-filters="sRGB">
<feFlood flood-opacity="0" result="BackgroundImageFix"/>
<feColorMatrix in="SourceAlpha" type="matrix" values="0 0 0 0 0 0 0 0 0 0 0 0 0 0 0 0 0 0 127 0" result="hardAlpha"/>
<feOffset dy="4"/>
<feGaussianBlur stdDeviation="2"/>
<feComposite in2="hardAlpha" operator="out"/>
<feColorMatrix type="matrix" values="0 0 0 0 0 0 0 0 0 0 0 0 0 0 0 0 0 0 0.25 0"/>
<feBlend mode="normal" in2="BackgroundImageFix" result="effect1_dropShadow_180_706"/>
<feBlend mode="normal" in="SourceGraphic" in2="effect1_dropShadow_180_706" result="shape"/>
</filter>
<filter id="filter18_d_180_706" x="194.782" y="67.5898" width="22.8281" height="17.2266" filterUnits="userSpaceOnUse" color-interpolation-filters="sRGB">
<feFlood flood-opacity="0" result="BackgroundImageFix"/>
<feColorMatrix in="SourceAlpha" type="matrix" values="0 0 0 0 0 0 0 0 0 0 0 0 0 0 0 0 0 0 127 0" result="hardAlpha"/>
<feOffset dy="4"/>
<feGaussianBlur stdDeviation="2"/>
<feComposite in2="hardAlpha" operator="out"/>
<feColorMatrix type="matrix" values="0 0 0 0 0 0 0 0 0 0 0 0 0 0 0 0 0 0 0.25 0"/>
<feBlend mode="normal" in2="BackgroundImageFix" result="effect1_dropShadow_180_706"/>
<feBlend mode="normal" in="SourceGraphic" in2="effect1_dropShadow_180_706" result="shape"/>
</filter>
<filter id="filter19_d_180_706" x="215.167" y="67.5898" width="15.1855" height="17.2266" filterUnits="userSpaceOnUse" color-interpolation-filters="sRGB">
<feFlood flood-opacity="0" result="BackgroundImageFix"/>
<feColorMatrix in="SourceAlpha" type="matrix" values="0 0 0 0 0 0 0 0 0 0 0 0 0 0 0 0 0 0 127 0" result="hardAlpha"/>
<feOffset dy="4"/>
<feGaussianBlur stdDeviation="2"/>
<feComposite in2="hardAlpha" operator="out"/>
<feColorMatrix type="matrix" values="0 0 0 0 0 0 0 0 0 0 0 0 0 0 0 0 0 0 0.25 0"/>
<feBlend mode="normal" in2="BackgroundImageFix" result="effect1_dropShadow_180_706"/>
<feBlend mode="normal" in="SourceGraphic" in2="effect1_dropShadow_180_706" result="shape"/>
</filter>
<filter id="filter20_d_180_706" x="228.228" y="67.5898" width="14.8047" height="17.2266" filterUnits="userSpaceOnUse" color-interpolation-filters="sRGB">
<feFlood flood-opacity="0" result="BackgroundImageFix"/>
<feColorMatrix in="SourceAlpha" type="matrix" values="0 0 0 0 0 0 0 0 0 0 0 0 0 0 0 0 0 0 127 0" result="hardAlpha"/>
<feOffset dy="4"/>
<feGaussianBlur stdDeviation="2"/>
<feComposite in2="hardAlpha" operator="out"/>
<feColorMatrix type="matrix" values="0 0 0 0 0 0 0 0 0 0 0 0 0 0 0 0 0 0 0.25 0"/>
<feBlend mode="normal" in2="BackgroundImageFix" result="effect1_dropShadow_180_706"/>
<feBlend mode="normal" in="SourceGraphic" in2="effect1_dropShadow_180_706" result="shape"/>
</filter>
<filter id="filter21_d_180_706" x="240.401" y="67.5898" width="14.8047" height="17.2266" filterUnits="userSpaceOnUse" color-interpolation-filters="sRGB">
<feFlood flood-opacity="0" result="BackgroundImageFix"/>
<feColorMatrix in="SourceAlpha" type="matrix" values="0 0 0 0 0 0 0 0 0 0 0 0 0 0 0 0 0 0 127 0" result="hardAlpha"/>
<feOffset dy="4"/>
<feGaussianBlur stdDeviation="2"/>
<feComposite in2="hardAlpha" operator="out"/>
<feColorMatrix type="matrix" values="0 0 0 0 0 0 0 0 0 0 0 0 0 0 0 0 0 0 0.25 0"/>
<feBlend mode="normal" in2="BackgroundImageFix" result="effect1_dropShadow_180_706"/>
<feBlend mode="normal" in="SourceGraphic" in2="effect1_dropShadow_180_706" result="shape"/>
</filter>
<filter id="filter22_d_180_706" x="252.575" y="67.5898" width="16.5098" height="17.2266" filterUnits="userSpaceOnUse" color-interpolation-filters="sRGB">
<feFlood flood-opacity="0" result="BackgroundImageFix"/>
<feColorMatrix in="SourceAlpha" type="matrix" values="0 0 0 0 0 0 0 0 0 0 0 0 0 0 0 0 0 0 127 0" result="hardAlpha"/>
<feOffset dy="4"/>
<feGaussianBlur stdDeviation="2"/>
<feComposite in2="hardAlpha" operator="out"/>
<feColorMatrix type="matrix" values="0 0 0 0 0 0 0 0 0 0 0 0 0 0 0 0 0 0 0.25 0"/>
<feBlend mode="normal" in2="BackgroundImageFix" result="effect1_dropShadow_180_706"/>
<feBlend mode="normal" in="SourceGraphic" in2="effect1_dropShadow_180_706" result="shape"/>
</filter>
<filter id="filter23_d_180_706" x="267.451" y="67.5898" width="15.1855" height="17.2266" filterUnits="userSpaceOnUse" color-interpolation-filters="sRGB">
<feFlood flood-opacity="0" result="BackgroundImageFix"/>
<feColorMatrix in="SourceAlpha" type="matrix" values="0 0 0 0 0 0 0 0 0 0 0 0 0 0 0 0 0 0 127 0" result="hardAlpha"/>
<feOffset dy="4"/>
<feGaussianBlur stdDeviation="2"/>
<feComposite in2="hardAlpha" operator="out"/>
<feColorMatrix type="matrix" values="0 0 0 0 0 0 0 0 0 0 0 0 0 0 0 0 0 0 0.25 0"/>
<feBlend mode="normal" in2="BackgroundImageFix" result="effect1_dropShadow_180_706"/>
<feBlend mode="normal" in="SourceGraphic" in2="effect1_dropShadow_180_706" result="shape"/>
</filter>
<filter id="filter24_d_180_706" x="279.78" y="67.4385" width="15.7188" height="17.5298" filterUnits="userSpaceOnUse" color-interpolation-filters="sRGB">
<feFlood flood-opacity="0" result="BackgroundImageFix"/>
<feColorMatrix in="SourceAlpha" type="matrix" values="0 0 0 0 0 0 0 0 0 0 0 0 0 0 0 0 0 0 127 0" result="hardAlpha"/>
<feOffset dy="4"/>
<feGaussianBlur stdDeviation="2"/>
<feComposite in2="hardAlpha" operator="out"/>
<feColorMatrix type="matrix" values="0 0 0 0 0 0 0 0 0 0 0 0 0 0 0 0 0 0 0.25 0"/>
<feBlend mode="normal" in2="BackgroundImageFix" result="effect1_dropShadow_180_706"/>
<feBlend mode="normal" in="SourceGraphic" in2="effect1_dropShadow_180_706" result="shape"/>
</filter>
<filter id="filter25_d_180_706" x="292.405" y="67.4385" width="15.7188" height="17.5298" filterUnits="userSpaceOnUse" color-interpolation-filters="sRGB">
<feFlood flood-opacity="0" result="BackgroundImageFix"/>
<feColorMatrix in="SourceAlpha" type="matrix" values="0 0 0 0 0 0 0 0 0 0 0 0 0 0 0 0 0 0 127 0" result="hardAlpha"/>
<feOffset dy="4"/>
<feGaussianBlur stdDeviation="2"/>
<feComposite in2="hardAlpha" operator="out"/>
<feColorMatrix type="matrix" values="0 0 0 0 0 0 0 0 0 0 0 0 0 0 0 0 0 0 0.25 0"/>
<feBlend mode="normal" in2="BackgroundImageFix" result="effect1_dropShadow_180_706"/>
<feBlend mode="normal" in="SourceGraphic" in2="effect1_dropShadow_180_706" result="shape"/>
</filter>
</defs>
</svg>
