<svg width="305" height="119" viewBox="0 0 305 119" fill="none" xmlns="http://www.w3.org/2000/svg">
<mask id="mask0_180_706" style="mask-type:luminance" maskUnits="userSpaceOnUse" x="51" y="0" width="27" height="119">
<path d="M51.4326 0H77.168V3.23085H51.4326V0ZM56.072 3.23085H72.5325V115.386H56.072V3.23085ZM51.4326 115.386H77.168V118.602H51.4326V115.386Z" fill="white"/>
</mask>
<g mask="url(#mask0_180_706)">
<path d="M51.4326 0H77.168V118.557H51.4326V84.5809H73V59H51.4326V0Z" fill="black"/>
</g>
<mask id="mask1_180_706" style="mask-type:luminance" maskUnits="userSpaceOnUse" x="82" y="0" width="46" height="119">
<path d="M82.4814 0H127.208V118.701H82.4814V0Z" fill="white"/>
</mask>
<g mask="url(#mask1_180_706)">
<mask id="mask2_180_706" style="mask-type:luminance" maskUnits="userSpaceOnUse" x="82" y="0" width="46" height="119">
<path d="M82.4814 0H126.36L127.208 35.2477H125.69C123.608 23.0402 121.203 14.7528 118.478 10.3289C115.756 5.93144 111.68 3.73461 106.287 3.73461H103.92V58.7917H107.726C110.42 58.7917 112.677 56.8069 114.47 52.8602C116.274 48.9135 117.507 43.4858 118.177 36.5999H119.448V86.7595H118.013C117.111 78.2828 115.867 72.2453 114.264 68.6433C112.662 65.0413 110.474 63.2156 107.726 63.2156H103.92V114.883H114.386V118.602H82.4814V114.883H87.4595V3.73461H82.4814V0Z" fill="white"/>
</mask>
<g mask="url(#mask2_180_706)">
<path d="M82.4998 -0.0795898H127.227L125.018 78.4204V86.4999V118.5H82.4998V84.5142L101 84.757L110.25 84.8784L121 88.9999V84.8784L121.984 59H82.4845L82.4998 -0.0795898Z" fill="black"/>
</g>
</g>
<mask id="mask3_180_706" style="mask-type:luminance" maskUnits="userSpaceOnUse" x="132" y="0" width="52" height="119">
<path d="M132.315 0H183.908V118.64H132.315V0Z" fill="white"/>
</mask>
<g mask="url(#mask3_180_706)">
<mask id="mask4_180_706" style="mask-type:luminance" maskUnits="userSpaceOnUse" x="132" y="0" width="52" height="119">
<path d="M182.953 0L183.798 42.5313H182.199C179.725 27.5172 177.533 17.2678 175.619 11.7871C173.704 6.30262 170.953 3.57553 167.356 3.57553H166.344V115.042H173.499V118.591H142.702V115.042H149.868V3.54901H148.776C145.176 3.54901 142.386 6.40868 140.414 12.1053C138.447 17.8246 136.285 27.9679 133.918 42.5313H132.315L133.164 0H182.953Z" fill="white"/>
</mask>
<g mask="url(#mask4_180_706)">
<path d="M132.315 0H183.786V59.32V118.64H132.315L149.5 84.5H168L169 59H132.315V0Z" fill="black"/>
</g>
</g>
<mask id="mask5_180_706" style="mask-type:luminance" maskUnits="userSpaceOnUse" x="188" y="0" width="48" height="119">
<path d="M188.894 0.355957H235.752V118.682H188.894V0.355957Z" fill="white"/>
</mask>
<g mask="url(#mask5_180_706)">
<mask id="mask6_180_706" style="mask-type:luminance" maskUnits="userSpaceOnUse" x="188" y="0" width="48" height="119">
<path d="M188.894 0.355957H232.642L233.487 33.8083H231.972C229.613 22.4303 227.143 14.6391 224.566 10.4159C221.99 6.1927 218.195 4.0792 213.202 4.0792H210.256V56.2804H213.122C215.756 56.2804 217.978 54.2729 219.763 50.2845C221.567 46.3 222.819 40.9102 223.558 34.153H224.825V84.1611H223.394C222.385 75.7109 221.019 69.6924 219.314 66.1017C217.609 62.511 215.265 60.6892 212.288 60.6892H210.271V114.894H213.464C218.618 114.894 223.01 111.803 226.625 105.599C230.241 99.4215 232.722 91.4751 234.073 81.7825H235.752L235.082 118.602H188.894V114.894H193.86V4.0792H188.894V0.355957Z" fill="white"/>
</mask>
<g mask="url(#mask6_180_706)">
<path d="M190.158 0.355957H237.016V118.564H188.893L188.893 84.6033H227V59H190.158V0.355957Z" fill="black"/>
</g>
</g>
<mask id="mask7_180_706" style="mask-type:luminance" maskUnits="userSpaceOnUse" x="240" y="0" width="60" height="119">
<path d="M240.859 0H299.337V118.689H240.859V0Z" fill="white"/>
</mask>
<g mask="url(#mask7_180_706)">
<mask id="mask8_180_706" style="mask-type:luminance" maskUnits="userSpaceOnUse" x="240" y="0" width="60" height="119">
<path d="M299.337 57.2577C299.337 80.5365 296.068 96.7437 289.556 105.88C283.535 114.352 275.272 118.591 264.749 118.591H240.859V115.36H246.427V3.23085H240.859V0H266.937C277.735 0 285.849 4.42396 291.238 13.2946C296.642 22.1652 299.337 36.812 299.337 57.2577ZM262.888 115.36H266.089C271.767 115.36 275.832 111.334 278.283 103.258C280.73 95.1795 281.948 81.6462 281.948 62.6853V52.8602C281.948 27.4376 279.527 12.1583 274.698 6.93894C272.384 4.45047 269.13 3.20434 264.913 3.20434H262.888V115.36Z" fill="white"/>
</mask>
<g mask="url(#mask8_180_706)">
<path d="M240.859 0H299.337V59H280.381L279.5 84.5H297.5V119L240.859 118.568V97L246.5 84.5H265.5V59H246.5L240.859 0Z" fill="black"/>
</g>
</g>
<path d="M14.1311 67.5898V76.8165H12.3651L7.73717 71.2108V76.8165H5.62109V67.5898H7.40225L12.015 73.1955V67.5898H14.1311Z" fill="black"/>
<path d="M27.6826 75.1045V76.8165H20.4971V67.5898H27.4999V69.3019H22.6284V71.3017H26.9366V72.9683H22.6284V75.1045H27.6826Z" fill="black"/>
<path d="M47.5787 67.5898L44.534 76.8165H42.2352L40.1953 70.5745L38.0944 76.8165H35.7957L32.751 67.5898H34.9736L37.0745 74.0743L39.2514 67.5898H41.2457L43.3618 74.1349L45.5235 67.5898H47.5787Z" fill="black"/>
<path d="M69.5676 67.5898V76.8165H67.4211V73.0289H63.2041V76.8165H61.0576V67.5898H63.2041V71.226H67.4211V67.5898H69.5676Z" fill="black"/>
<path d="M83.1181 75.1045V76.8165H75.9326V67.5898H82.9355V69.3019H78.0639V71.3017H82.3722V72.9683H78.0639V75.1045H83.1181Z" fill="black"/>
<path d="M88.9932 67.5898H91.1397V76.8165H88.9932V67.5898Z" fill="black"/>
<path d="M103.783 72.0594H105.732V75.8016C105.233 76.1765 104.651 76.4644 103.981 76.6652C103.319 76.8659 102.657 76.9682 101.987 76.9682C101.02 76.9682 100.152 76.7674 99.3836 76.3621C98.6224 75.9607 98.0211 75.3925 97.5872 74.6653C97.1496 73.9381 96.9326 73.1199 96.9326 72.2109C96.9326 71.2943 97.1496 70.4686 97.5872 69.7414C98.0211 69.0141 98.6262 68.4498 99.3988 68.0445C100.179 67.643 101.058 67.4385 102.033 67.4385C102.843 67.4385 103.578 67.5748 104.24 67.8475C104.898 68.1203 105.458 68.5142 105.915 69.0293L104.529 70.2868C103.867 69.6012 103.072 69.2565 102.139 69.2565C101.549 69.2565 101.02 69.3777 100.556 69.6202C100.099 69.8626 99.7414 70.211 99.4902 70.6655C99.2352 71.1125 99.1096 71.6276 99.1096 72.2109C99.1096 72.779 99.2352 73.2866 99.4902 73.7411C99.7414 74.188 100.099 74.5365 100.556 74.7865C101.013 75.0289 101.53 75.1501 102.109 75.1501C102.725 75.1501 103.285 75.0213 103.783 74.7562V72.0594Z" fill="black"/>
<path d="M120.407 67.5898V76.8165H118.261V73.0289H114.044V76.8165H111.897V67.5898H114.044V71.226H118.261V67.5898H120.407Z" fill="black"/>
<path d="M128.69 69.3322H125.722V67.5898H133.805V69.3322H130.837V76.8165H128.69V69.3322Z" fill="black"/>
<path d="M142.177 76.9682C141.446 76.9682 140.734 76.8697 140.046 76.6803C139.364 76.4796 138.816 76.222 138.401 75.9076L139.132 74.3017C139.528 74.5971 140 74.8281 140.548 74.9986C141.096 75.1728 141.644 75.2562 142.192 75.2562C142.801 75.2562 143.25 75.1728 143.547 74.9986C143.84 74.8168 143.988 74.5744 143.988 74.2714C143.988 74.0517 143.901 73.8699 143.73 73.7259C143.555 73.5858 143.334 73.4684 143.06 73.3775C142.793 73.2866 142.428 73.1919 141.964 73.0896C141.263 72.9192 140.685 72.7525 140.228 72.5897C139.779 72.4192 139.395 72.1503 139.071 71.7867C138.755 71.4155 138.599 70.9193 138.599 70.3019C138.599 69.7679 138.74 69.2831 139.026 68.8475C139.319 68.4157 139.76 68.071 140.35 67.8172C140.936 67.5673 141.652 67.4385 142.497 67.4385C143.083 67.4385 143.661 67.5104 144.232 67.6506C144.799 67.7832 145.298 67.9839 145.724 68.2566L145.054 69.8777C144.202 69.3929 143.341 69.1505 142.481 69.1505C141.88 69.1505 141.438 69.249 141.157 69.4383C140.871 69.6315 140.731 69.8853 140.731 70.1959C140.731 70.5216 140.89 70.7564 141.218 70.9079C141.553 71.0595 142.059 71.211 142.74 71.3625C143.44 71.5253 144.011 71.692 144.46 71.8624C144.917 72.0253 145.305 72.2866 145.633 72.6503C145.956 73.0139 146.12 73.5063 146.12 74.1199C146.12 74.6463 145.967 75.1274 145.663 75.5592C145.366 75.9947 144.925 76.3394 144.339 76.5894C143.749 76.8394 143.029 76.9682 142.177 76.9682Z" fill="black"/>
<path d="M164.169 76.9682C163.202 76.9682 162.335 76.7674 161.566 76.3621C160.793 75.9493 160.188 75.3774 159.754 74.6501C159.317 73.9229 159.1 73.1124 159.1 72.2109C159.1 71.3019 159.317 70.4837 159.754 69.7565C160.188 69.0293 160.793 68.4649 161.566 68.0596C162.335 67.6468 163.202 67.4385 164.169 67.4385C165.132 67.4385 165.996 67.6468 166.757 68.0596C167.526 68.4649 168.131 69.0293 168.569 69.7565C169.014 70.4837 169.238 71.3019 169.238 72.2109C169.238 73.1124 169.014 73.9229 168.569 74.6501C168.131 75.3774 167.526 75.9493 166.757 76.3621C165.996 76.7674 165.132 76.9682 164.169 76.9682ZM164.169 75.1501C164.717 75.1501 165.208 75.0289 165.646 74.7865C166.091 74.5365 166.441 74.188 166.696 73.7411C166.947 73.2866 167.077 72.779 167.077 72.2109C167.077 71.6352 166.947 71.1276 166.696 70.6807C166.441 70.2262 166.091 69.8777 165.646 69.6353C165.208 69.3853 164.717 69.2565 164.169 69.2565C163.621 69.2565 163.122 69.3853 162.677 69.6353C162.239 69.8777 161.893 70.2262 161.642 70.6807C161.398 71.1276 161.277 71.6352 161.277 72.2109C161.277 72.779 161.398 73.2866 161.642 73.7411C161.893 74.188 162.239 74.5365 162.677 74.7865C163.122 75.0289 163.621 75.1501 164.169 75.1501Z" fill="black"/>
<path d="M177.177 69.3019V71.7411H181.47V73.4531H177.177V76.8165H175.03V67.5898H182.033V69.3019H177.177Z" fill="black"/>
<path d="M209.61 67.5898L206.565 76.8165H204.266L202.227 70.5745L200.126 76.8165H197.827L194.782 67.5898H197.005L199.106 74.0743L201.283 67.5898H203.277L205.393 74.1349L207.555 67.5898H209.61Z" fill="black"/>
<path d="M222.353 75.1045V76.8165H215.167V67.5898H222.17V69.3019H217.298V71.3017H221.607V72.9683H217.298V75.1045H222.353Z" fill="black"/>
<path d="M228.228 67.5898H230.374V75.0742H235.032V76.8165H228.228V67.5898Z" fill="black"/>
<path d="M240.401 67.5898H242.548V75.0742H247.206V76.8165H240.401V67.5898Z" fill="black"/>
<path d="M261.085 67.5898V76.8165H259.319L254.691 71.2108V76.8165H252.575V67.5898H254.356L258.969 73.1955V67.5898H261.085Z" fill="black"/>
<path d="M274.637 75.1045V76.8165H267.451V67.5898H274.454V69.3019H269.582V71.3017H273.891V72.9683H269.582V75.1045H274.637Z" fill="black"/>
<path d="M283.556 76.9682C282.825 76.9682 282.113 76.8697 281.424 76.6803C280.743 76.4796 280.195 76.222 279.78 75.9076L280.511 74.3017C280.907 74.5971 281.379 74.8281 281.927 74.9986C282.475 75.1728 283.023 75.2562 283.571 75.2562C284.18 75.2562 284.629 75.1728 284.926 74.9986C285.219 74.8168 285.367 74.5744 285.367 74.2714C285.367 74.0517 285.28 73.8699 285.109 73.7259C284.933 73.5858 284.713 73.4684 284.439 73.3775C284.172 73.2866 283.807 73.1919 283.343 73.0896C282.642 72.9192 282.064 72.7525 281.607 72.5897C281.158 72.4192 280.774 72.1503 280.45 71.7867C280.134 71.4155 279.978 70.9193 279.978 70.3019C279.978 69.7679 280.119 69.2831 280.404 68.8475C280.697 68.4157 281.139 68.071 281.729 67.8172C282.315 67.5673 283.031 67.4385 283.875 67.4385C284.462 67.4385 285.04 67.5104 285.611 67.6506C286.178 67.7832 286.677 67.9839 287.103 68.2566L286.433 69.8777C285.58 69.3929 284.72 69.1505 283.86 69.1505C283.259 69.1505 282.817 69.249 282.536 69.4383C282.25 69.6315 282.109 69.8853 282.109 70.1959C282.109 70.5216 282.269 70.7564 282.597 70.9079C282.932 71.0595 283.438 71.211 284.119 71.3625C284.819 71.5253 285.39 71.692 285.839 71.8624C286.296 72.0253 286.684 72.2866 287.011 72.6503C287.335 73.0139 287.499 73.5063 287.499 74.1199C287.499 74.6463 287.346 75.1274 287.042 75.5592C286.745 75.9947 286.304 76.3394 285.717 76.5894C285.128 76.8394 284.408 76.9682 283.556 76.9682Z" fill="black"/>
<path d="M296.181 76.9682C295.45 76.9682 294.738 76.8697 294.049 76.6803C293.368 76.4796 292.82 76.222 292.405 75.9076L293.136 74.3017C293.532 74.5971 294.004 74.8281 294.552 74.9986C295.1 75.1728 295.648 75.2562 296.196 75.2562C296.805 75.2562 297.254 75.1728 297.551 74.9986C297.844 74.8168 297.992 74.5744 297.992 74.2714C297.992 74.0517 297.905 73.8699 297.734 73.7259C297.558 73.5858 297.338 73.4684 297.064 73.3775C296.797 73.2866 296.432 73.1919 295.968 73.0896C295.267 72.9192 294.689 72.7525 294.232 72.5897C293.783 72.4192 293.399 72.1503 293.075 71.7867C292.759 71.4155 292.603 70.9193 292.603 70.3019C292.603 69.7679 292.744 69.2831 293.029 68.8475C293.322 68.4157 293.764 68.071 294.354 67.8172C294.94 67.5673 295.656 67.4385 296.5 67.4385C297.087 67.4385 297.665 67.5104 298.236 67.6506C298.803 67.7832 299.302 67.9839 299.728 68.2566L299.058 69.8777C298.205 69.3929 297.345 69.1505 296.485 69.1505C295.884 69.1505 295.442 69.249 295.161 69.4383C294.875 69.6315 294.734 69.8853 294.734 70.1959C294.734 70.5216 294.894 70.7564 295.222 70.9079C295.557 71.0595 296.063 71.211 296.744 71.3625C297.444 71.5253 298.015 71.692 298.464 71.8624C298.921 72.0253 299.309 72.2866 299.636 72.6503C299.96 73.0139 300.124 73.5063 300.124 74.1199C300.124 74.6463 299.971 75.1274 299.667 75.5592C299.37 75.9947 298.929 76.3394 298.342 76.5894C297.753 76.8394 297.033 76.9682 296.181 76.9682Z" fill="black"/>
<mask id="mask9_180_706" style="mask-type:luminance" maskUnits="userSpaceOnUse" x="0" y="0" width="47" height="119">
<path d="M0 0H30.371V3.73461H21.4233V114.883H24.4604C29.2368 114.883 33.0541 111.944 35.9009 106.065C38.7439 100.183 41.6174 91.1532 44.5479 78.9456H46.3253L44.723 118.591H0V114.856H4.9781V3.73461H0V0Z" fill="white"/>
</mask>
<g mask="url(#mask9_180_706)">
<path d="M0 0H46.3253V118.644H0V84.2187H46.3253V58.644H0V0Z" fill="black"/>
</g>
</svg>
